<svg width="175" height="175" viewBox="0 0 175 175" fill="none" xmlns="http://www.w3.org/2000/svg">
<path d="M131.89 60.5843C133.9 62.5909 133.9 65.7809 131.89 67.7875L73.4351 126.134C72.9633 126.61 72.4014 126.989 71.782 127.247C71.1626 127.505 70.498 127.638 69.8268 127.638C69.1555 127.638 68.4909 127.505 67.8715 127.247C67.2521 126.989 66.6902 126.61 66.2185 126.134L44.5686 104.524C44.091 104.053 43.7119 103.492 43.4531 102.874C43.1944 102.256 43.0611 101.592 43.0611 100.922C43.0611 100.252 43.1944 99.589 43.4531 98.9708C43.7119 98.3525 44.091 97.7917 44.5686 97.3208C45.0403 96.8442 45.6022 96.4657 46.2216 96.2074C46.841 95.9491 47.5056 95.8162 48.1769 95.8162C48.8482 95.8162 49.5128 95.9491 50.1321 96.2074C50.7515 96.4657 51.3134 96.8442 51.7852 97.3208L69.8268 115.329L124.673 60.5843C125.145 60.1077 125.707 59.7292 126.326 59.4709C126.946 59.2127 127.61 59.0797 128.281 59.0797C128.953 59.0797 129.617 59.2127 130.237 59.4709C130.856 59.7292 131.418 60.1077 131.89 60.5843ZM121.013 49.6765L69.8268 100.768L55.4451 86.413C51.4244 82.3998 44.8778 82.3998 40.8572 86.413L33.6405 93.6163C29.6198 97.6295 29.6198 104.164 33.6405 108.177L62.507 136.99C66.5277 141.003 73.0742 141.003 77.0949 136.99L142.818 71.4406C146.839 67.4274 146.839 60.893 142.818 56.8798L135.601 49.6765C131.529 45.6633 125.034 45.6633 121.013 49.6765Z" fill="#38A3A5"/>
<circle cx="87.5" cy="87.5" r="87.5" fill="#E7FAFB"/>
</svg>
